# Blender v2.70 (sub 0) OBJ File: 'arrow.blend'
# www.blender.org
v 0.000000 0.295555 0.228861
v 0.057660 0.289876 0.228861
v 0.113104 0.273058 0.228861
v 0.164202 0.245745 0.228861
v 0.208989 0.208989 0.228861
v 0.245745 0.164202 0.228861
v 0.273058 0.113104 0.228861
v 0.289876 0.057660 0.228861
v 0.295555 0.000000 0.228861
v 0.000000 0.000000 0.819972
v 0.289876 -0.057660 0.228861
v 0.273058 -0.113104 0.228861
v 0.245745 -0.164202 0.228861
v 0.208989 -0.208989 0.228861
v 0.164202 -0.245745 0.228861
v 0.113104 -0.273058 0.228861
v 0.057660 -0.289876 0.228861
v -0.000000 -0.295555 0.228861
v -0.057660 -0.289876 0.228861
v -0.113104 -0.273058 0.228861
v -0.164202 -0.245745 0.228861
v -0.208989 -0.208989 0.228861
v -0.245745 -0.164202 0.228861
v -0.273058 -0.113104 0.228861
v -0.289876 -0.057660 0.228861
v -0.295555 0.000000 0.228861
v -0.289876 0.057660 0.228861
v -0.273057 0.113104 0.228861
v -0.245745 0.164202 0.228861
v -0.208989 0.208990 0.228861
v -0.164201 0.245746 0.228861
v -0.113104 0.273058 0.228861
v -0.057660 0.289876 0.228861
v 0.000000 0.145229 0.228861
v 0.028333 0.142438 0.228861
v 0.055577 0.134174 0.228861
v 0.080685 0.120753 0.228861
v 0.102692 0.102692 0.228861
v 0.120753 0.080685 0.228861
v 0.134174 0.055577 0.228861
v 0.142438 0.028333 0.228861
v 0.145229 0.000000 0.228861
v 0.142438 -0.028333 0.228861
v 0.134174 -0.055577 0.228861
v 0.120753 -0.080685 0.228861
v 0.102692 -0.102692 0.228861
v 0.080685 -0.120753 0.228861
v 0.055577 -0.134174 0.228861
v 0.028333 -0.142438 0.228861
v -0.000000 -0.145229 0.228861
v -0.028333 -0.142438 0.228861
v -0.055577 -0.134174 0.228861
v -0.080685 -0.120753 0.228861
v -0.102692 -0.102692 0.228861
v -0.120753 -0.080685 0.228861
v -0.134174 -0.055576 0.228861
v -0.142438 -0.028333 0.228861
v -0.145229 0.000000 0.228861
v -0.142438 0.028333 0.228861
v -0.134174 0.055577 0.228861
v -0.120753 0.080685 0.228861
v -0.102692 0.102692 0.228861
v -0.080684 0.120753 0.228861
v -0.055576 0.134174 0.228861
v -0.028332 0.142438 0.228861
v 0.000000 0.145229 -0.628250
v 0.028333 0.142438 -0.628250
v 0.055577 0.134174 -0.628250
v 0.080685 0.120753 -0.628250
v 0.102692 0.102692 -0.628250
v 0.120753 0.080685 -0.628250
v 0.134174 0.055577 -0.628250
v 0.142438 0.028333 -0.628250
v 0.145229 0.000000 -0.628250
v 0.142438 -0.028333 -0.628250
v 0.134174 -0.055577 -0.628250
v 0.120753 -0.080685 -0.628250
v 0.102692 -0.102692 -0.628250
v 0.080685 -0.120753 -0.628250
v 0.055577 -0.134174 -0.628250
v 0.028333 -0.142438 -0.628250
v -0.000000 -0.145229 -0.628250
v -0.028333 -0.142438 -0.628250
v -0.055577 -0.134174 -0.628250
v -0.080685 -0.120753 -0.628250
v -0.102692 -0.102692 -0.628250
v -0.120753 -0.080685 -0.628250
v -0.134174 -0.055576 -0.628250
v -0.142438 -0.028333 -0.628250
v -0.145229 0.000000 -0.628250
v -0.142438 0.028333 -0.628250
v -0.134174 0.055577 -0.628250
v -0.120753 0.080685 -0.628250
v -0.102692 0.102692 -0.628250
v -0.080684 0.120753 -0.628250
v -0.055576 0.134174 -0.628250
v -0.028332 0.142438 -0.628250
v 0.000000 0.000000 -0.628250
vt 0.000000 0.000000
vt 1.000000 0.000000
vt 1.000000 1.000000
vt 0.000000 1.000000
vn -0.259888 0.856737 0.445488
vn 0.087753 0.890977 0.445488
vn -0.422034 0.789574 0.445489
vn -0.567964 0.692067 0.445488
vn -0.692066 0.567966 0.445488
vn -0.789573 0.422036 0.445488
vn -0.856737 0.259890 0.445488
vn -0.890977 0.087754 0.445488
vn -0.890977 -0.087753 0.445488
vn -0.856737 -0.259887 0.445488
vn -0.789574 -0.422035 0.445488
vn -0.692067 -0.567964 0.445488
vn -0.567965 -0.692066 0.445488
vn -0.422036 -0.789573 0.445489
vn -0.259889 -0.856737 0.445488
vn -0.087754 -0.890977 0.445488
vn 0.087753 -0.890977 0.445488
vn 0.259889 -0.856737 0.445488
vn 0.422035 -0.789574 0.445488
vn 0.567965 -0.692066 0.445488
vn 0.692067 -0.567965 0.445488
vn 0.789573 -0.422035 0.445489
vn 0.856737 -0.259888 0.445488
vn 0.890977 -0.087753 0.445488
vn 0.890977 0.087753 0.445488
vn 0.856737 0.259889 0.445488
vn 0.789573 0.422035 0.445488
vn 0.692067 0.567965 0.445488
vn 0.567965 0.692067 0.445488
vn 0.422035 0.789573 0.445489
vn -0.087753 0.890977 0.445488
vn 0.259889 0.856737 0.445488
vn 0.000000 -0.000000 -1.000000
vn -0.000001 0.000000 -1.000000
vn 0.000001 -0.000000 -1.000000
vn -0.000002 0.000000 -1.000000
vn -0.995185 -0.098015 0.000000
vn 0.290284 0.956940 0.000000
vn 0.634393 -0.773010 0.000000
vn -0.881921 -0.471396 0.000000
vn 0.881921 -0.471397 0.000000
vn -0.290283 0.956941 0.000000
vn -0.634394 -0.773010 0.000000
vn 0.995185 -0.098016 0.000000
vn -0.634392 0.773011 0.000000
vn -0.290285 -0.956940 0.000000
vn 0.956940 0.290284 0.000000
vn -0.881921 0.471398 0.000000
vn 0.773011 0.634393 0.000000
vn 0.098017 -0.995185 0.000000
vn -0.995185 0.098019 0.000000
vn 0.471397 0.881921 0.000000
vn 0.471396 -0.881922 0.000000
vn -0.956940 -0.290284 0.000000
vn 0.098017 0.995185 0.000000
vn 0.773010 -0.634393 0.000000
vn -0.098016 0.995185 0.000000
vn -0.773011 -0.634393 0.000000
vn 0.956940 -0.290285 0.000000
vn -0.471395 0.881922 0.000000
vn -0.471397 -0.881921 0.000000
vn 0.995185 0.098018 0.000000
vn -0.773009 0.634395 0.000000
vn -0.098018 -0.995185 0.000000
vn 0.881921 0.471397 0.000000
vn -0.956940 0.290286 0.000000
vn 0.634393 0.773011 0.000000
vn 0.290285 -0.956940 0.000000
vn 0.000004 0.000001 -1.000000
vn 0.000004 -0.000001 -1.000000
vn 0.000000 0.000001 -1.000000
vn 0.000002 -0.000000 -1.000000
vn 0.000000 -0.000001 -1.000000
vn -0.000002 0.000001 -1.000000
vn -0.000004 -0.000001 -1.000000
vn -0.000002 -0.000001 -1.000000
vn -0.995185 -0.098017 0.000000
vn -0.881922 -0.471395 0.000000
vn 0.995185 -0.098017 0.000000
vn -0.634393 0.773011 0.000000
vn -0.881921 0.471397 0.000000
vn 0.773010 0.634393 0.000000
vn -0.995185 0.098018 0.000000
vn 0.471397 -0.881921 0.000000
vn -0.956941 -0.290284 0.000000
vn 0.773011 -0.634393 0.000000
vn 0.956940 -0.290284 0.000000
vn 0.995185 0.098017 0.000000
vn -0.956940 0.290285 0.000000
s off
f 32/1/1 10/2/1 33/3/1
f 1/1/2 10/2/2 2/3/2
f 31/1/3 10/2/3 32/3/3
f 30/1/4 10/2/4 31/3/4
f 29/1/5 10/2/5 30/3/5
f 28/1/6 10/2/6 29/3/6
f 27/1/7 10/2/7 28/3/7
f 26/1/8 10/2/8 27/3/8
f 25/1/9 10/2/9 26/3/9
f 24/1/10 10/2/10 25/3/10
f 23/1/11 10/2/11 24/3/11
f 22/1/12 10/2/12 23/3/12
f 21/1/13 10/2/13 22/3/13
f 20/1/14 10/2/14 21/3/14
f 19/1/15 10/2/15 20/3/15
f 18/1/16 10/2/16 19/3/16
f 17/1/17 10/2/17 18/3/17
f 16/1/18 10/2/18 17/3/18
f 15/1/19 10/2/19 16/3/19
f 14/1/20 10/2/20 15/3/20
f 13/1/21 10/2/21 14/3/21
f 12/1/22 10/2/22 13/3/22
f 11/1/23 10/2/23 12/3/23
f 9/1/24 10/2/24 11/3/24
f 8/1/25 10/2/25 9/3/25
f 7/1/26 10/2/26 8/3/26
f 6/1/27 10/2/27 7/3/27
f 5/1/28 10/2/28 6/3/28
f 4/1/29 10/2/29 5/3/29
f 3/1/30 10/2/30 4/3/30
f 33/1/31 10/2/31 1/3/31
f 2/1/32 10/2/32 3/3/32
f 29/2/33 61/3/33 60/4/33
f 18/2/34 50/3/34 49/4/34
f 1/2/35 34/3/35 65/4/35
f 27/1/33 28/2/33 60/3/33
f 17/2/34 49/3/34 48/4/34
f 27/2/33 59/3/33 58/4/33
f 16/2/36 48/3/36 47/4/36
f 26/2/33 58/3/33 57/4/33
f 9/2/33 42/3/33 41/4/33
f 15/2/33 47/3/33 46/4/33
f 24/1/35 25/2/35 57/3/35
f 8/2/34 41/3/34 40/4/34
f 14/2/34 46/3/34 45/4/34
f 23/1/35 24/2/35 56/3/35
f 2/2/34 35/3/34 34/4/34
f 7/2/33 40/3/33 39/4/33
f 13/2/33 45/3/33 44/4/33
f 22/1/33 23/2/33 55/3/33
f 6/2/34 39/3/34 38/4/34
f 11/1/33 12/2/33 44/3/33
f 33/2/35 65/3/35 64/4/35
f 21/1/33 22/2/33 54/3/33
f 4/1/33 5/2/33 38/3/33
f 11/2/34 43/3/34 42/4/34
f 31/1/35 32/2/35 64/3/35
f 21/2/35 53/3/35 52/4/35
f 4/2/33 37/3/33 36/4/33
f 30/1/35 31/2/35 63/3/35
f 20/2/33 52/3/33 51/4/33
f 3/2/34 36/3/34 35/4/34
f 30/2/35 62/3/35 61/4/35
f 19/2/33 51/3/33 50/4/33
f 58/2/37 90/3/37 89/4/37
f 35/1/38 36/2/38 68/3/38
f 46/1/39 47/2/39 79/3/39
f 56/2/40 88/3/40 87/4/40
f 45/2/41 77/3/41 76/4/41
f 65/2/42 97/3/42 96/4/42
f 53/1/43 54/2/43 86/3/43
f 42/1/44 43/2/44 75/3/44
f 62/1/45 63/2/45 95/3/45
f 52/2/46 84/3/46 83/4/46
f 41/2/47 73/3/47 72/4/47
f 60/1/48 61/2/48 93/3/48
f 38/1/49 39/2/49 71/3/49
f 50/2/50 82/3/50 81/4/50
f 59/2/51 91/3/51 90/4/51
f 37/2/52 69/3/52 68/4/52
f 47/1/53 48/2/53 80/3/53
f 57/2/54 89/3/54 88/4/54
f 35/2/55 67/3/55 66/4/55
f 46/2/56 78/3/56 77/4/56
f 34/2/57 66/3/57 97/4/57
f 55/2/58 87/3/58 86/4/58
f 44/2/59 76/3/59 75/4/59
f 64/2/60 96/3/60 95/4/60
f 53/2/61 85/3/61 84/4/61
f 41/1/62 42/2/62 74/3/62
f 61/1/63 62/2/63 94/3/63
f 51/2/64 83/3/64 82/4/64
f 39/1/65 40/2/65 72/3/65
f 60/2/66 92/3/66 91/4/66
f 37/1/67 38/2/67 70/3/67
f 48/1/68 49/2/68 81/3/68
f 91/1/33 92/2/33 98/3/33
f 69/1/69 70/2/69 98/3/69
f 80/1/70 81/2/70 98/3/70
f 89/1/34 90/2/34 98/3/34
f 67/1/71 68/2/71 98/3/71
f 78/1/70 79/2/70 98/3/70
f 87/1/33 88/2/33 98/3/33
f 76/1/72 77/2/72 98/3/72
f 96/1/71 97/2/71 98/3/71
f 85/1/73 86/2/73 98/3/73
f 74/1/33 75/2/33 98/3/33
f 94/1/71 95/2/71 98/3/71
f 83/1/73 84/2/73 98/3/73
f 72/1/33 73/2/33 98/3/33
f 92/1/36 93/2/36 98/3/36
f 70/1/74 71/2/74 98/3/74
f 81/1/73 82/2/73 98/3/73
f 90/1/34 91/2/34 98/3/34
f 68/1/71 69/2/71 98/3/71
f 79/1/75 80/2/75 98/3/75
f 88/1/34 89/2/34 98/3/34
f 66/1/71 67/2/71 98/3/71
f 77/1/73 78/2/73 98/3/73
f 97/1/69 66/2/69 98/3/69
f 86/1/76 87/2/76 98/3/76
f 75/1/33 76/2/33 98/3/33
f 95/1/71 96/2/71 98/3/71
f 84/1/73 85/2/73 98/3/73
f 73/1/35 74/2/35 98/3/35
f 93/1/71 94/2/71 98/3/71
f 82/1/73 83/2/73 98/3/73
f 71/1/33 72/2/33 98/3/33
f 28/1/33 29/2/33 60/4/33
f 17/1/35 18/2/35 49/4/35
f 33/1/33 1/2/33 65/4/33
f 59/4/33 27/1/33 60/3/33
f 16/1/33 17/2/33 48/4/33
f 26/1/35 27/2/35 58/4/35
f 15/1/33 16/2/33 47/4/33
f 25/1/33 26/2/33 57/4/33
f 8/1/33 9/2/33 41/4/33
f 14/1/34 15/2/34 46/4/34
f 56/4/33 24/1/33 57/3/33
f 7/1/33 8/2/33 40/4/33
f 13/1/33 14/2/33 45/4/33
f 55/4/33 23/1/33 56/3/33
f 1/1/33 2/2/33 34/4/33
f 6/1/33 7/2/33 39/4/33
f 12/1/33 13/2/33 44/4/33
f 54/4/33 22/1/33 55/3/33
f 5/1/33 6/2/33 38/4/33
f 43/4/33 11/1/33 44/3/33
f 32/1/34 33/2/34 64/4/34
f 53/4/33 21/1/33 54/3/33
f 37/4/33 4/1/33 38/3/33
f 9/1/33 11/2/33 42/4/33
f 63/4/33 31/1/33 64/3/33
f 20/1/33 21/2/33 52/4/33
f 3/1/33 4/2/33 36/4/33
f 62/4/33 30/1/33 63/3/33
f 19/1/33 20/2/33 51/4/33
f 2/1/33 3/2/33 35/4/33
f 29/1/33 30/2/33 61/4/33
f 18/1/33 19/2/33 50/4/33
f 57/1/77 58/2/77 89/4/77
f 67/4/38 35/1/38 68/3/38
f 78/4/39 46/1/39 79/3/39
f 55/1/78 56/2/78 87/4/78
f 44/1/41 45/2/41 76/4/41
f 64/1/42 65/2/42 96/4/42
f 85/4/43 53/1/43 86/3/43
f 74/4/79 42/1/79 75/3/79
f 94/4/80 62/1/80 95/3/80
f 51/1/46 52/2/46 83/4/46
f 40/1/47 41/2/47 72/4/47
f 92/4/81 60/1/81 93/3/81
f 70/4/82 38/1/82 71/3/82
f 49/1/50 50/2/50 81/4/50
f 58/1/83 59/2/83 90/4/83
f 36/1/52 37/2/52 68/4/52
f 79/4/84 47/1/84 80/3/84
f 56/1/85 57/2/85 88/4/85
f 34/1/55 35/2/55 66/4/55
f 45/1/86 46/2/86 77/4/86
f 65/1/57 34/2/57 97/4/57
f 54/1/58 55/2/58 86/4/58
f 43/1/87 44/2/87 75/4/87
f 63/1/60 64/2/60 95/4/60
f 52/1/61 53/2/61 84/4/61
f 73/4/88 41/1/88 74/3/88
f 93/4/63 61/1/63 94/3/63
f 50/1/64 51/2/64 82/4/64
f 71/4/65 39/1/65 72/3/65
f 59/1/89 60/2/89 91/4/89
f 69/4/67 37/1/67 70/3/67
f 80/4/68 48/1/68 81/3/68
