# Blender v2.70 (sub 0) OBJ File: 'arrow.blend'
# www.blender.org
v -0.000000 0.284451 0.296018
v -0.057660 0.284451 0.290339
v -0.113104 0.284451 0.273520
v -0.164202 0.284451 0.246208
v -0.208989 0.284451 0.209452
v -0.245745 0.284451 0.164665
v -0.273058 0.284451 0.113567
v -0.289876 0.284451 0.058123
v -0.295555 0.284451 0.000463
v -0.000000 0.875562 0.000463
v -0.289876 0.284451 -0.057197
v -0.273058 0.284451 -0.112641
v -0.245745 0.284451 -0.163739
v -0.208989 0.284451 -0.208527
v -0.164202 0.284451 -0.245283
v -0.113104 0.284451 -0.272595
v -0.057660 0.284451 -0.289414
v 0.000000 0.284451 -0.295093
v 0.057660 0.284451 -0.289414
v 0.113104 0.284451 -0.272595
v 0.164202 0.284451 -0.245283
v 0.208989 0.284451 -0.208526
v 0.245745 0.284451 -0.163739
v 0.273058 0.284451 -0.112641
v 0.289876 0.284451 -0.057197
v 0.295555 0.284451 0.000463
v 0.289876 0.284451 0.058123
v 0.273057 0.284451 0.113567
v 0.245745 0.284451 0.164665
v 0.208989 0.284451 0.209452
v 0.164201 0.284451 0.246208
v 0.113104 0.284451 0.273520
v 0.057659 0.284451 0.290339
v -0.000000 0.284451 0.145691
v -0.028333 0.284451 0.142901
v -0.055577 0.284451 0.134636
v -0.080685 0.284451 0.121216
v -0.102692 0.284451 0.103155
v -0.120753 0.284451 0.081147
v -0.134174 0.284451 0.056039
v -0.142438 0.284451 0.028795
v -0.145229 0.284451 0.000463
v -0.142438 0.284451 -0.027870
v -0.134174 0.284451 -0.055114
v -0.120753 0.284451 -0.080222
v -0.102692 0.284451 -0.102229
v -0.080685 0.284451 -0.120290
v -0.055577 0.284451 -0.133711
v -0.028333 0.284451 -0.141975
v -0.000000 0.284451 -0.144766
v 0.028333 0.284451 -0.141975
v 0.055577 0.284451 -0.133711
v 0.080685 0.284451 -0.120290
v 0.102692 0.284451 -0.102229
v 0.120753 0.284451 -0.080222
v 0.134174 0.284451 -0.055114
v 0.142438 0.284451 -0.027870
v 0.145229 0.284451 0.000463
v 0.142438 0.284451 0.028796
v 0.134174 0.284451 0.056040
v 0.120753 0.284451 0.081148
v 0.102692 0.284451 0.103155
v 0.080684 0.284451 0.121216
v 0.055576 0.284451 0.134637
v 0.028332 0.284451 0.142901
v 0.000000 -0.572660 0.145691
v -0.028333 -0.572660 0.142901
v -0.055577 -0.572660 0.134636
v -0.080685 -0.572660 0.121216
v -0.102692 -0.572660 0.103155
v -0.120753 -0.572660 0.081147
v -0.134174 -0.572660 0.056039
v -0.142438 -0.572660 0.028795
v -0.145228 -0.572660 0.000463
v -0.142438 -0.572660 -0.027870
v -0.134174 -0.572660 -0.055114
v -0.120753 -0.572660 -0.080222
v -0.102692 -0.572660 -0.102229
v -0.080685 -0.572660 -0.120291
v -0.055576 -0.572660 -0.133711
v -0.028333 -0.572660 -0.141975
v 0.000000 -0.572660 -0.144766
v 0.028333 -0.572660 -0.141975
v 0.055577 -0.572660 -0.133711
v 0.080685 -0.572660 -0.120290
v 0.102692 -0.572660 -0.102229
v 0.120753 -0.572660 -0.080222
v 0.134174 -0.572660 -0.055114
v 0.142438 -0.572660 -0.027870
v 0.145229 -0.572660 0.000463
v 0.142438 -0.572660 0.028796
v 0.134174 -0.572660 0.056039
v 0.120753 -0.572660 0.081147
v 0.102692 -0.572660 0.103155
v 0.080685 -0.572660 0.121216
v 0.055576 -0.572660 0.134636
v 0.028333 -0.572660 0.142901
v 0.000000 -0.572660 0.000463
vt 0.628997 0.504770
vt 0.653322 0.480444
vt 0.709945 0.549440
vt 0.713708 0.784026
vt 0.739618 0.698613
vt 0.756197 0.701911
vt 0.815589 0.448167
vt 0.789680 0.533580
vt 0.773101 0.530282
vt 0.697993 0.561393
vt 0.688601 0.575448
vt 0.781849 0.790738
vt 0.747448 0.790738
vt 0.609884 0.533373
vt 0.682133 0.591065
vt 0.773101 0.701911
vt 0.789680 0.698613
vt 0.596720 0.565156
vt 0.678835 0.607644
vt 0.932578 0.667037
vt 0.847165 0.641128
vt 0.850463 0.624549
vt 0.815590 0.784026
vt 0.805297 0.692144
vt 0.590008 0.633297
vt 0.590008 0.598896
vt 0.939289 0.633297
vt 0.850463 0.607645
vt 0.875976 0.751749
vt 0.847372 0.770861
vt 0.678835 0.624548
vt 0.682132 0.641128
vt 0.847372 0.461332
vt 0.805297 0.540049
vt 0.932578 0.565156
vt 0.939289 0.598896
vt 0.819352 0.682753
vt 0.831305 0.670800
vt 0.596719 0.667037
vt 0.688601 0.656745
vt 0.847165 0.591066
vt 0.840696 0.575448
vt 0.900301 0.727424
vt 0.840696 0.656745
vt 0.781849 0.441456
vt 0.756197 0.530282
vt 0.628996 0.727424
vt 0.609884 0.698820
vt 0.919413 0.533373
vt 0.831305 0.561393
vt 0.919413 0.698820
vt 0.747448 0.441456
vt 0.739618 0.533580
vt 0.697993 0.670800
vt 0.709945 0.682753
vt 0.875975 0.480444
vt 0.900301 0.504770
vt 0.713708 0.448167
vt 0.724001 0.540049
vt 0.653322 0.751749
vt 0.724001 0.692144
vt 0.819352 0.549440
vt 0.681925 0.461332
vt 0.681925 0.770861
vt 0.812015 0.093719
vt 0.815313 0.077140
vt 0.897829 0.102171
vt 0.938478 0.026123
vt 0.952533 0.035515
vt 0.938477 0.178218
vt 0.922860 0.184687
vt 0.815313 0.127202
vt 0.812015 0.110623
vt 0.906281 0.016357
vt 0.922861 0.019654
vt 0.964485 0.156874
vt 0.952532 0.168827
vt 0.831173 0.156874
vt 0.821782 0.142819
vt 0.980345 0.127202
vt 0.973877 0.142819
vt 0.857181 0.026123
vt 0.872798 0.019654
vt 0.857181 0.178218
vt 0.843126 0.168827
vt 0.983643 0.093719
vt 0.983643 0.110623
vt 0.831173 0.047467
vt 0.843126 0.035514
vt 0.889377 0.187985
vt 0.872798 0.184687
vt 0.973877 0.061523
vt 0.980346 0.077140
vt 0.821782 0.061522
vt 0.964486 0.047468
vt 0.906281 0.187985
vt 0.889378 0.016357
vt 0.773282 0.340270
vt 0.386905 0.408743
vt 0.765800 0.306692
vt 0.755406 0.273899
vt 0.742179 0.242141
vt 0.777794 0.374374
vt 0.779302 0.408743
vt 0.029089 0.247674
vt 0.016357 0.279632
vt 0.044571 0.216953
vt 0.062685 0.187707
vt 0.083290 0.160160
vt 0.106229 0.134523
vt 0.131325 0.110993
vt 0.158385 0.089753
vt 0.187202 0.070964
vt 0.217554 0.054771
vt 0.249207 0.041298
vt 0.281919 0.030650
vt 0.315437 0.022908
vt 0.349505 0.018131
vt 0.383860 0.016357
vt 0.418238 0.017598
vt 0.452376 0.021845
vt 0.486011 0.029066
vt 0.518884 0.039206
vt 0.550743 0.052185
vt 0.581342 0.067905
vt 0.610448 0.086245
vt 0.637834 0.107064
vt 0.663293 0.130201
vt 0.686627 0.155479
vt 0.707657 0.182703
vt 0.726222 0.211665
vt 0.083972 0.950358
vt 0.083972 0.441456
vt 0.100877 0.441456
vt 0.455856 0.950364
vt 0.455868 0.441460
vt 0.472773 0.441460
vt 0.269913 0.950360
vt 0.269921 0.441457
vt 0.286825 0.441458
vt 0.134683 0.950358
vt 0.117779 0.950358
vt 0.117781 0.441456
vt 0.303721 0.950361
vt 0.303729 0.441458
vt 0.320633 0.441458
vt 0.506568 0.950366
vt 0.506581 0.441461
vt 0.523487 0.441461
vt 0.168490 0.950358
vt 0.151587 0.950358
vt 0.151589 0.441456
vt 0.337529 0.950361
vt 0.337537 0.441458
vt 0.354441 0.441458
vt 0.540375 0.950367
vt 0.540391 0.441462
vt 0.557295 0.441462
vt 0.185394 0.950359
vt 0.185399 0.441456
vt 0.202303 0.441457
vt 0.371337 0.950362
vt 0.371345 0.441459
vt 0.388250 0.441459
vt 0.033260 0.950358
vt 0.033261 0.441456
vt 0.050164 0.441456
vt 0.405144 0.950363
vt 0.405154 0.441459
vt 0.422058 0.441459
vt 0.219202 0.950359
vt 0.219209 0.441457
vt 0.236113 0.441457
vt 0.067068 0.950358
vt 0.067068 0.441456
vt 0.438952 0.950364
vt 0.438962 0.441459
vt 0.253010 0.950360
vt 0.253017 0.441457
vt 0.100875 0.950358
vt 0.472760 0.950365
vt 0.489677 0.441460
vt 0.286817 0.950360
vt 0.489664 0.950365
vt 0.134685 0.441456
vt 0.320625 0.950361
vt 0.523472 0.950366
vt 0.168495 0.441456
vt 0.354433 0.950362
vt 0.016357 0.950358
vt 0.016357 0.441456
vt 0.202298 0.950359
vt 0.388241 0.950363
vt 0.050164 0.950358
vt 0.422048 0.950363
vt 0.236106 0.950359
vt 0.557279 0.950367
vn -0.000000 -1.000000 0.000000
vn 0.000001 -1.000000 0.000000
vn 0.000000 -1.000000 -0.000002
vn -0.000000 -1.000000 -0.000003
vn 0.000000 -1.000000 -0.000001
vn 0.000001 -1.000000 0.000001
vn 0.000000 -1.000000 0.000001
vn 0.000001 -1.000000 -0.000002
vn -0.000001 -1.000000 0.000001
vn 0.000001 -1.000000 -0.000001
vn -0.000001 -1.000000 -0.000001
vn 0.000002 -1.000000 0.000002
vn -0.000001 -1.000000 0.000000
vn 0.000002 -1.000000 0.000000
vn -0.000000 -1.000000 -0.000004
vn -0.000000 -1.000000 0.000004
vn -0.000001 -1.000000 -0.000004
vn -0.000000 -1.000000 0.000002
vn 0.342281 0.447213 0.826344
vn 0.000000 1.000000 0.000000
vn 0.174493 0.447213 0.877241
vn -0.000000 0.447213 0.894427
vn -0.174494 0.447213 0.877241
vn 0.496916 0.447214 0.743690
vn 0.632455 0.447214 0.632456
vn 0.743688 0.447214 0.496918
vn 0.826342 0.447214 0.342283
vn 0.877241 0.447214 0.174495
vn 0.894427 0.447214 0.000000
vn 0.877241 0.447214 -0.174493
vn 0.826343 0.447214 -0.342281
vn 0.743689 0.447214 -0.496916
vn 0.632456 0.447214 -0.632455
vn 0.496917 0.447214 -0.743689
vn 0.342283 0.447214 -0.826343
vn 0.174494 0.447214 -0.877241
vn 0.000000 0.447214 -0.894427
vn -0.174494 0.447214 -0.877241
vn -0.342282 0.447214 -0.826343
vn -0.496917 0.447214 -0.743689
vn -0.632456 0.447214 -0.632455
vn -0.743689 0.447213 -0.496917
vn -0.826343 0.447214 -0.342282
vn -0.877241 0.447214 -0.174494
vn -0.894427 0.447214 0.000000
vn -0.877241 0.447213 0.174495
vn -0.826343 0.447213 0.342282
vn -0.743689 0.447213 0.496917
vn -0.632456 0.447214 0.632455
vn -0.496917 0.447214 0.743689
vn -0.342283 0.447213 0.826343
vn 1.000000 0.000000 0.000001
vn 0.980785 0.000000 -0.195090
vn -0.382684 -0.000000 0.923879
vn -0.382683 -0.000000 0.923880
vn -0.195089 -0.000000 0.980785
vn -0.555570 0.000000 -0.831470
vn -0.555569 0.000000 -0.831470
vn -0.707107 0.000000 -0.707107
vn 0.831470 0.000000 -0.555569
vn 0.923880 0.000000 -0.382683
vn -0.831470 -0.000000 -0.555570
vn -0.923879 -0.000000 -0.382684
vn 0.195090 -0.000000 0.980785
vn 0.195089 -0.000000 0.980786
vn 0.382681 -0.000000 0.923880
vn 0.555571 0.000000 -0.831469
vn 0.707108 0.000000 -0.707106
vn -0.980785 -0.000000 -0.195090
vn -1.000000 -0.000000 0.000000
vn 0.555570 -0.000000 0.831470
vn 0.555569 -0.000000 0.831471
vn 0.707106 -0.000000 0.707108
vn 0.382684 0.000000 -0.923879
vn 0.195090 0.000000 -0.980785
vn -0.980785 -0.000000 0.195090
vn -0.923880 -0.000000 0.382683
vn 0.831469 0.000000 0.555571
vn 0.831469 0.000000 0.555572
vn 0.923879 0.000000 0.382685
vn -0.831470 -0.000000 0.555570
vn -0.707107 -0.000000 0.707107
vn -0.000000 0.000000 -1.000000
vn -0.195091 0.000000 -0.980785
vn 0.980785 0.000000 0.195091
vn 0.980785 0.000000 0.195092
vn -0.555571 -0.000000 0.831469
vn -0.382683 0.000000 -0.923880
vn 0.980785 0.000000 -0.195089
vn -0.195090 -0.000000 0.980785
vn -0.000001 -0.000000 1.000000
vn 0.000000 -0.000000 1.000000
vn -0.923880 -0.000000 -0.382683
vn 0.382682 -0.000000 0.923880
vn 0.923879 0.000000 0.382684
vn -0.195090 0.000000 -0.980785
s off
f 28/1/1 29/2/1 61/3/1
f 18/4/2 50/5/2 49/6/2
f 1/7/1 34/8/1 65/9/1
f 28/1/3 60/10/3 59/11/3
f 16/12/2 17/13/2 49/6/2
f 27/14/4 59/11/4 58/15/4
f 16/12/1 48/16/1 47/17/1
f 26/18/1 58/15/1 57/19/1
f 9/20/5 42/21/5 41/22/5
f 15/23/2 47/17/2 46/24/2
f 24/25/1 25/26/1 57/19/1
f 8/27/6 41/22/6 40/28/6
f 13/29/1 14/30/1 46/24/1
f 24/25/7 56/31/7 55/32/7
f 2/33/1 35/34/1 34/8/1
f 6/35/2 7/36/2 40/28/2
f 13/29/8 45/37/8 44/38/8
f 23/39/9 55/32/9 54/40/9
f 6/35/5 39/41/5 38/42/5
f 12/43/6 44/38/6 43/44/6
f 33/45/10 65/9/10 64/46/10
f 21/47/7 22/48/7 54/40/7
f 5/49/6 38/42/6 37/50/6
f 11/51/5 43/44/5 42/21/5
f 32/52/5 64/46/5 63/53/5
f 21/47/1 53/54/1 52/55/1
f 3/56/5 4/57/5 37/50/5
f 31/58/11 63/53/11 62/59/11
f 20/60/11 52/55/11 51/61/11
f 2/33/1 3/56/1 36/62/1
f 29/2/1 30/63/1 62/59/1
f 19/64/1 51/61/1 50/5/1
f 91/65/2 92/66/2 98/67/2
f 69/68/1 70/69/1 98/67/1
f 80/70/1 81/71/1 98/67/1
f 89/72/1 90/73/1 98/67/1
f 67/74/12 68/75/12 98/67/12
f 78/76/1 79/77/1 98/67/1
f 87/78/1 88/79/1 98/67/1
f 76/80/1 77/81/1 98/67/1
f 96/82/1 97/83/1 98/67/1
f 85/84/8 86/85/8 98/67/8
f 74/86/1 75/87/1 98/67/1
f 94/88/13 95/89/13 98/67/13
f 83/90/14 84/91/14 98/67/14
f 72/92/15 73/93/15 98/67/15
f 92/66/1 93/94/1 98/67/1
f 70/69/1 71/95/1 98/67/1
f 81/71/1 82/96/1 98/67/1
f 90/73/1 91/65/1 98/67/1
f 68/75/1 69/68/1 98/67/1
f 79/77/1 80/70/1 98/67/1
f 88/79/1 89/72/1 98/67/1
f 66/97/1 67/74/1 98/67/1
f 77/81/3 78/76/3 98/67/3
f 97/83/1 66/97/1 98/67/1
f 86/85/2 87/78/2 98/67/2
f 75/87/16 76/80/16 98/67/16
f 95/89/14 96/82/14 98/67/14
f 84/91/1 85/84/1 98/67/1
f 73/93/1 74/86/1 98/67/1
f 93/94/1 94/88/1 98/67/1
f 82/96/5 83/90/5 98/67/5
f 71/95/17 72/92/17 98/67/17
f 60/10/1 28/1/1 61/3/1
f 17/13/1 18/4/1 49/6/1
f 33/45/5 1/7/5 65/9/5
f 27/14/1 28/1/1 59/11/1
f 48/16/7 16/12/7 49/6/7
f 26/18/1 27/14/1 58/15/1
f 15/23/7 16/12/7 47/17/7
f 25/26/5 26/18/5 57/19/5
f 8/27/5 9/20/5 41/22/5
f 14/30/1 15/23/1 46/24/1
f 56/31/13 24/25/13 57/19/13
f 7/36/2 8/27/2 40/28/2
f 45/37/18 13/29/18 46/24/18
f 23/39/5 24/25/5 55/32/5
f 1/7/5 2/33/5 34/8/5
f 39/41/1 6/35/1 40/28/1
f 12/43/2 13/29/2 44/38/2
f 22/48/1 23/39/1 54/40/1
f 5/49/1 6/35/1 38/42/1
f 11/51/5 12/43/5 43/44/5
f 32/52/1 33/45/1 64/46/1
f 53/54/10 21/47/10 54/40/10
f 4/57/1 5/49/1 37/50/1
f 9/20/1 11/51/1 42/21/1
f 31/58/1 32/52/1 63/53/1
f 20/60/1 21/47/1 52/55/1
f 36/62/13 3/56/13 37/50/13
f 30/63/1 31/58/1 62/59/1
f 19/64/1 20/60/1 51/61/1
f 35/34/2 2/33/2 36/62/2
f 61/3/1 29/2/1 62/59/1
f 18/4/1 19/64/1 50/5/1
s 1
f 32/98/19 10/99/20 33/100/21
f 1/101/22 10/99/20 2/102/23
f 31/103/24 10/99/20 32/98/19
f 30/104/25 10/99/20 31/103/24
f 29/105/26 10/99/20 30/106/25
f 28/107/27 10/99/20 29/105/26
f 27/108/28 10/99/20 28/107/27
f 26/109/29 10/99/20 27/108/28
f 25/110/30 10/99/20 26/109/29
f 24/111/31 10/99/20 25/110/30
f 23/112/32 10/99/20 24/111/31
f 22/113/33 10/99/20 23/112/32
f 21/114/34 10/99/20 22/113/33
f 20/115/35 10/99/20 21/114/34
f 19/116/36 10/99/20 20/115/35
f 18/117/37 10/99/20 19/116/36
f 17/118/38 10/99/20 18/117/37
f 16/119/39 10/99/20 17/118/38
f 15/120/40 10/99/20 16/119/39
f 14/121/41 10/99/20 15/120/40
f 13/122/42 10/99/20 14/121/41
f 12/123/43 10/99/20 13/122/42
f 11/124/44 10/99/20 12/123/43
f 9/125/45 10/99/20 11/124/44
f 8/126/46 10/99/20 9/125/45
f 7/127/47 10/99/20 8/126/46
f 6/128/48 10/99/20 7/127/47
f 5/129/49 10/99/20 6/128/48
f 4/130/50 10/99/20 5/129/49
f 3/131/51 10/99/20 4/130/50
f 33/100/21 10/99/20 1/101/22
f 2/102/23 10/99/20 3/131/51
f 58/132/52 90/133/52 89/134/53
f 36/135/54 68/136/55 67/137/56
f 47/138/57 79/139/58 78/140/59
f 55/141/60 56/142/61 88/143/61
f 45/144/62 77/145/62 76/146/63
f 65/147/64 97/148/65 96/149/66
f 53/150/67 54/151/68 86/152/68
f 43/153/69 75/154/69 74/155/70
f 63/156/71 95/157/72 94/158/73
f 52/159/74 84/160/74 83/161/75
f 41/162/76 73/163/76 72/164/77
f 61/165/78 93/166/79 92/167/80
f 39/168/81 71/169/81 70/170/82
f 50/171/83 82/172/83 81/173/84
f 59/174/85 91/175/86 90/133/52
f 37/176/87 69/177/87 68/136/55
f 47/138/57 48/178/88 80/179/88
f 57/180/89 89/134/53 88/143/61
f 35/181/90 67/137/56 66/182/91
f 46/183/59 78/140/59 77/145/62
f 34/184/92 66/182/91 97/148/65
f 55/141/60 87/185/60 86/152/68
f 43/153/69 44/186/93 76/146/63
f 64/187/94 96/149/66 95/157/72
f 53/150/67 85/188/67 84/160/74
f 42/189/70 74/155/70 73/163/76
f 62/190/73 94/191/73 93/166/79
f 51/192/75 83/161/75 82/172/83
f 40/193/77 72/164/77 71/169/81
f 60/194/95 92/167/80 91/175/86
f 38/195/82 70/170/82 69/177/87
f 49/196/96 81/173/84 80/179/88
f 57/180/89 58/132/52 89/134/53
f 35/181/90 36/135/54 67/137/56
f 46/183/59 47/138/57 78/140/59
f 87/185/60 55/141/60 88/143/61
f 44/186/93 45/144/62 76/146/63
f 64/187/94 65/147/64 96/149/66
f 85/188/67 53/150/67 86/152/68
f 42/189/70 43/153/69 74/155/70
f 62/197/73 63/156/71 94/158/73
f 51/192/75 52/159/74 83/161/75
f 40/193/77 41/162/76 72/164/77
f 60/194/95 61/165/78 92/167/80
f 38/195/82 39/168/81 70/170/82
f 49/196/96 50/171/83 81/173/84
f 58/132/52 59/174/85 90/133/52
f 36/135/54 37/176/87 68/136/55
f 79/139/58 47/138/57 80/179/88
f 56/142/61 57/180/89 88/143/61
f 34/184/92 35/181/90 66/182/91
f 45/144/62 46/183/59 77/145/62
f 65/147/64 34/184/92 97/148/65
f 54/151/68 55/141/60 86/152/68
f 75/154/69 43/153/69 76/146/63
f 63/156/71 64/187/94 95/157/72
f 52/159/74 53/150/67 84/160/74
f 41/162/76 42/189/70 73/163/76
f 61/165/78 62/190/73 93/166/79
f 50/171/83 51/192/75 82/172/83
f 39/168/81 40/193/77 71/169/81
f 59/174/85 60/194/95 91/175/86
f 37/176/87 38/195/82 69/177/87
f 48/178/88 49/196/96 80/179/88
