# Blender v2.70 (sub 0) OBJ File: 'asteroid.blend'
# www.blender.org
v -0.909423 -0.346982 -0.108941
v -0.456798 -0.799027 -0.750823
v -0.182674 -0.882985 0.108625
v -0.260740 -0.372287 0.865474
v -0.585932 0.762449 0.446295
v -0.556429 0.381025 -0.528274
v 0.647845 -0.570618 -0.318918
v 0.753093 -0.245426 0.471901
v 0.490313 0.564132 0.629985
v 0.338701 1.044307 -0.340872
v 0.356272 0.088502 -0.689979
v 0.890539 0.261822 -0.003164
v -0.421010 -0.850689 0.174056
v -0.517020 -0.765523 0.123026
v -0.813129 -0.549620 0.037260
v -0.841637 -0.410006 -0.269569
v -0.769522 -0.572450 -0.529471
v -0.577873 -0.713552 -0.636771
v -0.429979 -0.944772 -0.637352
v -0.391340 -1.018378 -0.424719
v -0.284256 -1.011423 -0.126173
v -0.512522 0.142438 -0.594869
v -0.609079 -0.165285 -0.690240
v -0.509432 -0.445552 -0.797988
v -0.937752 -0.144032 -0.243321
v -0.912050 0.041553 -0.531384
v -0.653366 0.205930 -0.534190
v -0.536696 -0.362474 0.710247
v -0.754982 -0.331598 0.364406
v -0.922718 -0.314957 0.153006
v -0.168573 -0.732437 0.377663
v -0.171438 -0.662288 0.529916
v -0.242082 -0.518057 0.728405
v -0.827957 0.595903 0.176946
v -0.834446 0.327673 0.012430
v -0.883455 0.022518 -0.069837
v -0.354841 -0.168424 0.741029
v -0.483769 0.297245 0.692811
v -0.563092 0.633941 0.639520
v -0.732876 0.719607 0.149488
v -0.549133 0.621969 -0.221182
v -0.585794 0.474937 -0.428386
v 0.159075 -0.024090 -0.635457
v -0.184721 -0.336881 -0.651347
v -0.340362 -0.583868 -0.845012
v -0.344248 0.371187 -0.628537
v 0.012878 0.297057 -0.595611
v 0.220212 0.274388 -0.633434
v 0.480073 -0.778969 -0.251446
v 0.278026 -0.985720 -0.182848
v 0.020252 -0.928596 0.015500
v -0.225193 -0.893401 -0.773186
v 0.114902 -0.904233 -0.722494
v 0.440778 -0.760443 -0.591799
v 0.458324 -0.332998 0.536305
v 0.180437 -0.297344 0.792479
v -0.154590 -0.391287 0.830258
v 0.075416 -0.858785 0.222839
v 0.354964 -0.665936 0.207269
v 0.444434 -0.482294 0.389635
v 0.272253 0.589365 0.765689
v -0.045185 0.772285 0.848630
v -0.369191 0.801439 0.789658
v -0.194537 -0.194779 0.789372
v 0.116916 0.115249 0.866616
v 0.422737 0.402213 0.728463
v 0.078850 0.915861 -0.456177
v -0.080816 0.780327 -0.539088
v -0.318258 0.560638 -0.502384
v -0.362696 0.907650 0.355287
v -0.196407 1.023643 0.151028
v 0.094503 1.080919 -0.048535
v 0.471624 -0.060075 -0.683011
v 0.608348 -0.317497 -0.650592
v 0.612691 -0.448424 -0.491806
v 0.787390 -0.553812 0.004836
v 0.701432 -0.503543 0.179228
v 0.655226 -0.407242 0.370501
v 0.831907 -0.055030 0.635396
v 0.697915 0.101968 0.678649
v 0.545360 0.395900 0.629910
v 0.451769 0.748522 0.494226
v 0.497110 0.849303 0.301677
v 0.317578 0.938538 -0.022032
v 0.376926 0.922463 -0.554518
v 0.485827 0.695254 -0.732229
v 0.444288 0.370369 -0.774768
v 0.838181 0.061879 -0.086409
v 0.856993 -0.201718 -0.088019
v 0.723191 -0.353491 -0.189388
v 0.621417 0.243242 -0.804907
v 0.802167 0.185838 -0.632846
v 0.720844 0.166499 -0.286802
v 0.944715 0.114331 0.150761
v 0.976544 -0.004806 0.465923
v 0.911127 -0.146940 0.563585
v 0.794516 0.334597 0.096163
v 0.828308 0.455194 0.282108
v 0.721486 0.466093 0.511468
v 0.679672 0.444897 -0.191578
v 0.747302 0.753739 -0.271625
v 0.509140 0.921595 -0.307481
v -0.588761 -0.879430 -0.086268
v -0.667173 -0.719502 -0.200238
v -0.630571 -0.876691 -0.381211
v -0.752759 -0.068931 -0.651892
v -0.690693 -0.346624 -0.670601
v -0.762715 -0.271570 -0.486362
v -0.438583 -0.581764 0.521452
v -0.651491 -0.539212 0.297393
v -0.324236 -0.739425 0.409821
v -0.780091 0.450543 0.313744
v -0.889562 0.054979 0.184174
v -0.604241 0.029270 0.523000
v -0.728567 0.363924 -0.365135
v -0.854393 0.185480 -0.242368
v -0.790116 0.514000 -0.132934
v -0.092075 0.070640 -0.715901
v -0.320381 -0.197531 -0.664211
v -0.358309 0.079058 -0.649348
v 0.248280 -0.925454 -0.538273
v -0.058797 -1.066720 -0.278998
v -0.187723 -1.043610 -0.649478
v 0.275259 -0.523605 0.416947
v -0.049498 -0.494672 0.759682
v -0.012975 -0.680615 0.399394
v 0.079753 0.391440 0.810495
v -0.330344 0.528037 0.901186
v -0.221820 0.112508 0.733280
v -0.111370 0.960980 -0.263098
v -0.361580 0.717097 -0.372959
v -0.328448 0.927184 0.010297
v 0.366094 -0.567692 -0.698691
v -0.013645 -0.618406 -0.869982
v 0.245302 -0.291333 -0.700925
v 0.479951 -0.608281 0.213722
v 0.315397 -0.850418 0.054682
v 0.492552 -0.701415 0.040373
v 0.442630 0.115927 0.709655
v 0.049675 -0.195207 0.808211
v 0.449871 -0.090212 0.666657
v 0.144693 1.019352 0.280164
v -0.184499 0.958779 0.607443
v 0.045315 0.857389 0.600850
v 0.164084 0.521778 -0.703498
v -0.085561 0.566966 -0.641899
v 0.270141 0.811962 -0.645266
v 0.837988 -0.020427 -0.390123
v 0.811006 -0.240101 -0.435060
v 0.723245 0.017328 -0.642664
v 0.871065 -0.119506 0.181757
v 0.857120 -0.207455 0.304567
v 0.791701 -0.338549 0.099247
v 0.884520 0.178096 0.384358
v 0.700390 0.334807 0.552771
v 0.878570 0.050534 0.572137
v 0.649657 0.590305 0.042600
v 0.641756 0.910720 -0.077381
v 0.703237 0.706157 0.272873
v 0.714447 0.492242 -0.541257
v 0.636527 0.441114 -0.753541
v 0.491408 0.732233 -0.528824
vt 0.055203 0.404535
vt 0.083907 0.364128
vt 0.090780 0.463783
vt 0.174555 0.280785
vt 0.149581 0.290767
vt 0.152108 0.222294
vt 0.047289 0.483253
vt 0.003729 0.384047
vt 0.037539 0.314179
vt 0.188314 0.244426
vt 0.180708 0.566653
vt 0.174929 0.492983
vt 0.208285 0.538989
vt 0.078447 0.781651
vt 0.110968 0.753402
vt 0.111656 0.834479
vt 0.764169 0.546212
vt 0.781851 0.614406
vt 0.742392 0.639648
vt 0.806768 0.103213
vt 0.790298 0.179384
vt 0.715631 0.146746
vt 0.205368 0.315718
vt 0.205197 0.619192
vt 0.057124 0.861376
vt 0.732798 0.528566
vt 0.687291 0.072608
vt 0.303745 0.494324
vt 0.320726 0.427812
vt 0.341049 0.535447
vt 0.351656 0.796301
vt 0.337745 0.741640
vt 0.393117 0.770194
vt 0.597583 0.754011
vt 0.558279 0.811685
vt 0.558140 0.708632
vt 0.612862 0.372492
vt 0.613818 0.461471
vt 0.583896 0.394782
vt 0.423610 0.214266
vt 0.483229 0.212621
vt 0.435750 0.282800
vt 0.153127 0.545983
vt 0.124405 0.515503
vt 0.147779 0.462867
vt 0.120005 0.417498
vt 0.172813 0.421885
vt 0.147535 0.378055
vt 0.174189 0.352343
vt 0.113485 0.318399
vt 0.911347 0.084686
vt 0.883760 0.151114
vt 0.097719 0.145481
vt 0.050013 0.167687
vt 0.017624 0.086009
vt 0.115411 0.223839
vt 0.968684 0.167687
vt 0.931696 0.221577
vt 0.073772 0.259542
vt 0.009925 0.221577
vt 0.064071 0.705555
vt 0.048260 0.589560
vt 0.100500 0.668236
vt 0.092213 0.561263
vt 0.142930 0.705134
vt 0.132675 0.612557
vt 0.166952 0.633617
vt 0.798719 0.440782
vt 0.856081 0.386560
vt 0.831554 0.511590
vt 0.925500 0.384047
vt 0.906276 0.480151
vt 0.830551 0.694199
vt 0.910838 0.626489
vt 0.942286 0.768318
vt 0.969060 0.483253
vt 0.970031 0.589560
vt 0.985842 0.705555
vt 0.020516 0.768318
vt 0.849574 0.221660
vt 0.959310 0.314179
vt 0.894043 0.294542
vt 0.775416 0.294629
vt 0.818485 0.329811
vt 0.767640 0.430042
vt 0.339522 0.148299
vt 0.457919 0.132590
vt 0.218399 0.205742
vt 0.268740 0.059002
vt 0.157443 0.164783
vt 0.565857 0.072893
vt 0.109414 0.042502
vt 0.670873 0.015820
vt 0.276610 0.503949
vt 0.280294 0.425055
vt 0.244276 0.515694
vt 0.248001 0.440052
vt 0.204426 0.460199
vt 0.246553 0.363311
vt 0.208666 0.389768
vt 0.313701 0.840791
vt 0.291284 0.748776
vt 0.205328 0.880259
vt 0.236930 0.760849
vt 0.155095 0.790254
vt 0.240786 0.672458
vt 0.190289 0.704404
vt 0.654483 0.761807
vt 0.617467 0.861244
vt 0.710182 0.713108
vt 0.711413 0.853200
vt 0.761831 0.730154
vt 0.788420 0.911109
vt 0.852067 0.865564
vt 0.978894 0.861376
vt 0.630411 0.313237
vt 0.649018 0.412050
vt 0.654806 0.231099
vt 0.675960 0.350394
vt 0.719517 0.258574
vt 0.690810 0.462749
vt 0.726609 0.400541
vt 0.286298 0.345183
vt 0.234057 0.279170
vt 0.346631 0.348906
vt 0.289894 0.256254
vt 0.380132 0.277229
vt 0.283996 0.672218
vt 0.242181 0.593249
vt 0.324237 0.670646
vt 0.279054 0.587097
vt 0.311925 0.581293
vt 0.523690 0.936261
vt 0.811064 0.973012
vt 0.476559 0.837275
vt 0.206264 0.970645
vt 0.376525 0.920919
vt 0.404117 0.828845
vt 0.655736 0.519513
vt 0.703752 0.605274
vt 0.612685 0.575848
vt 0.660645 0.660072
vt 0.606352 0.675593
vt 0.538597 0.172331
vt 0.625503 0.132054
vt 0.544197 0.248096
vt 0.594080 0.232031
vt 0.589688 0.310282
vt 0.424470 0.565802
vt 0.454478 0.451083
vt 0.462029 0.559499
vt 0.383641 0.561945
vt 0.412876 0.452041
vt 0.367431 0.444992
vt 0.445400 0.350954
vt 0.401173 0.352445
vt 0.444522 0.651338
vt 0.423102 0.721013
vt 0.402955 0.657571
vt 0.375128 0.716391
vt 0.356956 0.638206
vt 0.491012 0.614829
vt 0.523627 0.670238
vt 0.472119 0.704630
vt 0.507127 0.756799
vt 0.445945 0.774081
vt 0.502270 0.480608
vt 0.549162 0.424446
vt 0.539081 0.548533
vt 0.579023 0.494029
vt 0.571334 0.612952
vt 0.501884 0.358698
vt 0.493943 0.272693
vt 0.552604 0.329125
vn -0.958434 -0.271737 -0.086886
vn -0.912625 -0.337992 -0.229896
vn -0.780206 -0.604236 0.161687
vn -0.530625 -0.404004 -0.745079
vn -0.717154 -0.382946 -0.582232
vn -0.327952 0.095889 -0.939787
vn -0.929929 -0.208167 0.303049
vn -0.988464 0.149541 0.022797
vn -0.994293 -0.075198 -0.075350
vn -0.116428 0.084231 -0.989593
vn -0.022034 -0.886868 0.461470
vn -0.163915 -0.941374 0.294778
vn 0.079440 -0.919126 0.385784
vn -0.115604 -0.161229 0.980102
vn -0.184545 -0.740410 0.646290
vn 0.129368 -0.269143 0.954344
vn -0.654500 0.698599 0.289041
vn -0.800958 0.210456 0.560442
vn -0.453475 0.603748 0.655599
vn -0.499771 0.412885 -0.761406
vn -0.581927 0.590838 -0.558763
vn -0.433119 0.508438 -0.744194
vn -0.109470 -0.503830 -0.856807
vn 0.194220 -0.808924 0.554857
vn -0.150151 0.202979 0.967589
vn -0.485580 0.866817 0.113224
vn -0.221686 0.254616 -0.941252
vn 0.862209 -0.401654 -0.308542
vn 0.793847 -0.442915 -0.416639
vn 0.896756 -0.394879 -0.199683
vn 0.039003 -0.582751 0.811701
vn 0.464553 -0.681570 0.565325
vn 0.641743 -0.512558 0.570452
vn 0.542772 0.418867 0.727928
vn 0.515610 0.188238 0.835871
vn 0.742454 0.281106 0.608020
vn 0.237892 0.955657 -0.173406
vn 0.374340 0.914212 0.155126
vn 0.548357 0.803766 -0.230689
vn -0.292428 -0.128819 -0.947539
vn -0.209510 -0.011231 -0.977722
vn 0.257790 -0.090030 -0.961974
vn -0.390881 -0.769951 0.504349
vn -0.688925 -0.578997 0.435987
vn -0.725059 -0.619282 0.301187
vn -0.876095 -0.467788 0.116489
vn -0.361064 -0.931516 -0.043275
vn -0.762017 -0.639546 -0.101352
vn -0.517655 -0.713462 -0.472152
vn -0.874508 -0.294168 -0.385540
vn -0.250008 0.264931 -0.931272
vn -0.368725 0.432112 -0.822962
vn -0.129887 0.198126 -0.971526
vn -0.489853 0.072451 -0.868770
vn -0.724967 -0.054659 -0.686575
vn -0.831080 0.176885 -0.527207
vn -0.902158 -0.181768 -0.391186
vn -0.652058 -0.229865 0.722465
vn -0.779595 -0.254402 0.572222
vn -0.490707 -0.701224 0.517167
vn -0.644520 -0.599811 0.474105
vn 0.052400 -0.850154 0.523881
vn -0.219214 -0.825770 0.519608
vn 0.096805 -0.867244 0.488327
vn -0.938322 0.323771 0.121067
vn -0.987762 0.155675 -0.005341
vn -0.894833 0.049104 0.443617
vn -0.946165 0.098941 0.308084
vn -0.649129 -0.152623 0.745170
vn -0.749657 0.021821 0.661428
vn -0.387158 0.225074 0.894101
vn -0.691916 0.518815 -0.501999
vn -0.948424 0.308542 -0.072451
vn -0.579241 0.701071 -0.415815
vn -0.792627 0.492141 -0.359813
vn -0.662465 0.744285 -0.084506
vn -0.000275 0.015931 -0.999847
vn -0.256233 -0.092868 -0.962127
vn 0.109195 0.297708 -0.948363
vn -0.011200 0.154271 -0.987945
vn 0.070956 0.138249 -0.987823
vn -0.112064 0.100833 -0.988556
vn -0.138462 0.164434 -0.976592
vn 0.691519 -0.720969 -0.044252
vn 0.681356 -0.517533 -0.517563
vn 0.441969 -0.887356 0.131260
vn 0.471938 -0.839106 -0.270425
vn 0.085086 -0.991211 0.101138
vn 0.346538 -0.624592 -0.699820
vn -0.039247 -0.895840 -0.442610
vn 0.373882 -0.619800 0.689932
vn 0.300851 -0.710074 0.636586
vn 0.395642 -0.276193 0.875851
vn 0.362529 -0.730857 0.578265
vn 0.229102 -0.672842 0.703391
vn 0.334178 -0.667562 0.665304
vn 0.295022 -0.749870 0.592120
vn 0.391156 0.343028 0.853969
vn 0.485794 0.105686 0.867641
vn 0.245247 0.509323 0.824885
vn 0.112705 0.004578 0.993591
vn -0.317972 -0.052675 0.946623
vn 0.070589 -0.007721 0.997467
vn -0.227180 -0.037690 0.973113
vn -0.265633 0.807306 -0.526933
vn 0.060518 0.997681 -0.030732
vn -0.398114 0.584429 -0.707053
vn -0.373608 0.845943 -0.380413
vn -0.549333 0.645527 -0.530534
vn -0.331736 0.943297 0.010010
vn -0.517563 0.827723 -0.216712
vn 0.471999 -0.129093 -0.872066
vn 0.118686 0.063692 -0.990875
vn 0.514817 -0.292123 -0.805963
vn 0.040132 0.189856 -0.980956
vn 0.018464 -0.129154 -0.991424
vn 0.392987 -0.743156 0.541520
vn 0.445296 -0.771996 0.453505
vn 0.642842 -0.630696 0.434675
vn 0.554613 -0.764031 0.329569
vn 0.878689 -0.470504 0.080447
vn 0.313913 -0.065157 0.947203
vn 0.119083 -0.039583 0.992065
vn 0.323527 0.136357 0.936308
vn 0.295358 -0.275399 0.914823
vn 0.418989 -0.193915 0.887020
vn 0.257790 0.931059 0.258187
vn -0.096377 0.921934 0.375103
vn 0.436476 0.824396 0.360332
vn 0.393597 0.773309 0.496994
vn 0.457259 0.684744 0.567431
vn -0.249062 -0.009522 -0.968413
vn -0.285806 0.188543 -0.939543
vn 0.426038 0.500290 -0.753746
vn -0.178533 0.542009 -0.821162
vn 0.316630 0.757256 -0.571215
vn 0.960356 0.049501 -0.274331
vn 0.937284 0.330149 -0.111515
vn 0.895413 0.408368 -0.177282
vn 0.956847 -0.283456 -0.063753
vn 0.979919 0.131870 -0.149419
vn 0.876492 -0.376904 -0.299417
vn 0.933470 0.034211 -0.356975
vn 0.625050 -0.287118 -0.725822
vn 0.984008 0.116031 -0.135105
vn 0.975585 0.048830 0.213965
vn 0.947447 -0.284921 -0.145390
vn 0.863552 -0.503830 -0.020631
vn 0.941191 -0.337382 0.016907
vn 0.851405 0.516221 -0.092654
vn 0.943602 0.330760 0.013459
vn 0.856777 0.461898 0.229225
vn 0.666311 0.312143 0.677175
vn 0.704886 0.335521 0.624897
vn 0.987182 0.152532 -0.046602
vn 0.924375 0.350505 -0.150456
vn 0.974273 0.193426 -0.115574
vn 0.633320 0.769372 0.083071
vn 0.820521 0.539171 0.189703
vn 0.901914 0.363170 -0.233680
vn 0.541734 0.358562 -0.760186
vn 0.749382 0.548845 -0.370342
s 1
f 1/1/1 16/2/2 15/3/3
f 2/4/4 18/5/5 24/6/6
f 1/1/1 15/3/3 30/7/7
f 1/1/1 30/7/7 36/8/8
f 1/1/1 36/8/8 25/9/9
f 2/4/4 24/6/6 45/10/10
f 3/11/11 21/12/12 51/13/13
f 4/14/14 33/15/15 57/16/16
f 5/17/17 39/18/18 63/19/19
f 6/20/20 42/21/21 69/22/22
f 2/4/4 45/10/10 52/23/23
f 3/11/11 51/13/13 58/24/24
f 4/14/14 57/16/16 64/25/25
f 5/17/17 63/19/19 70/26/26
f 6/20/20 69/22/22 46/27/27
f 7/28/28 75/29/29 90/30/30
f 8/31/31 78/32/32 96/33/33
f 9/34/34 81/35/35 99/36/36
f 10/37/37 84/38/38 102/39/39
f 11/40/40 87/41/41 91/42/42
f 13/43/43 21/12/12 3/11/11
f 14/44/44 103/45/45 13/43/43
f 15/3/3 104/46/46 14/44/44
f 13/43/43 103/45/45 21/12/12
f 103/45/45 20/47/47 21/12/12
f 14/44/44 104/46/46 103/45/45
f 104/46/46 105/48/48 103/45/45
f 103/45/45 105/48/48 20/47/47
f 105/48/48 19/49/49 20/47/47
f 15/3/3 16/2/2 104/46/46
f 16/2/2 17/50/50 104/46/46
f 104/46/46 17/50/50 105/48/48
f 17/50/50 18/5/5 105/48/48
f 105/48/48 18/5/5 19/49/49
f 18/5/5 2/4/4 19/49/49
f 22/51/51 27/52/52 6/20/20
f 23/53/53 106/54/54 22/55/51
f 24/6/6 107/56/55 23/53/53
f 22/51/51 106/57/54 27/52/52
f 106/57/54 26/58/56 27/52/52
f 23/53/53 107/56/55 106/54/54
f 107/56/55 108/59/57 106/54/54
f 106/54/54 108/59/57 26/60/56
f 108/59/57 25/9/9 26/60/56
f 24/6/6 18/5/5 107/56/55
f 18/5/5 17/50/50 107/56/55
f 107/56/55 17/50/50 108/59/57
f 17/50/50 16/2/2 108/59/57
f 108/59/57 16/2/2 25/9/9
f 16/2/2 1/1/1 25/9/9
f 28/61/58 33/15/15 4/14/14
f 29/62/59 109/63/60 28/61/58
f 30/7/7 110/64/61 29/62/59
f 28/61/58 109/63/60 33/15/15
f 109/63/60 32/65/62 33/15/15
f 29/62/59 110/64/61 109/63/60
f 110/64/61 111/66/63 109/63/60
f 109/63/60 111/66/63 32/65/62
f 111/66/63 31/67/64 32/65/62
f 30/7/7 15/3/3 110/64/61
f 15/3/3 14/44/44 110/64/61
f 110/64/61 14/44/44 111/66/63
f 14/44/44 13/43/43 111/66/63
f 111/66/63 13/43/43 31/67/64
f 13/43/43 3/11/11 31/67/64
f 34/68/65 39/18/18 5/17/17
f 35/69/66 112/70/67 34/68/65
f 36/71/8 113/72/68 35/69/66
f 34/68/65 112/70/67 39/18/18
f 112/70/67 38/73/69 39/18/18
f 35/69/66 113/72/68 112/70/67
f 113/72/68 114/74/70 112/70/67
f 112/70/67 114/74/70 38/73/69
f 114/74/70 37/75/71 38/73/69
f 36/71/8 30/76/7 113/72/68
f 30/76/7 29/77/59 113/72/68
f 113/72/68 29/77/59 114/74/70
f 29/77/59 28/78/58 114/74/70
f 114/74/70 28/78/58 37/75/71
f 28/61/58 4/14/14 37/79/71
f 27/52/52 42/21/21 6/20/20
f 26/58/56 115/80/72 27/52/52
f 25/81/9 116/82/73 26/58/56
f 27/52/52 115/80/72 42/21/21
f 115/80/72 41/83/74 42/21/21
f 26/58/56 116/82/73 115/80/72
f 116/82/73 117/84/75 115/80/72
f 115/80/72 117/84/75 41/83/74
f 117/84/75 40/85/76 41/83/74
f 25/81/9 36/71/8 116/82/73
f 36/71/8 35/69/66 116/82/73
f 116/82/73 35/69/66 117/84/75
f 35/69/66 34/68/65 117/84/75
f 117/84/75 34/68/65 40/85/76
f 34/68/65 5/17/17 40/85/76
f 43/86/77 48/87/78 11/40/40
f 44/88/79 118/89/80 43/86/77
f 45/10/10 119/90/81 44/88/79
f 43/86/77 118/89/80 48/87/78
f 118/89/80 47/91/82 48/87/78
f 44/88/79 119/90/81 118/89/80
f 119/90/81 120/92/83 118/89/80
f 118/89/80 120/93/83 47/91/82
f 120/93/83 46/27/27 47/91/82
f 45/10/10 24/6/6 119/90/81
f 24/6/6 23/53/53 119/90/81
f 119/90/81 23/53/53 120/92/83
f 23/53/53 22/55/51 120/92/83
f 120/93/83 22/51/51 46/27/27
f 22/51/51 6/20/20 46/27/27
f 49/94/84 54/95/85 7/28/28
f 50/96/86 121/97/87 49/94/84
f 51/13/13 122/98/88 50/96/86
f 49/94/84 121/97/87 54/95/85
f 121/97/87 53/99/89 54/95/85
f 50/96/86 122/98/88 121/97/87
f 122/98/88 123/100/90 121/97/87
f 121/97/87 123/100/90 53/99/89
f 123/100/90 52/23/23 53/99/89
f 51/13/13 21/12/12 122/98/88
f 21/12/12 20/47/47 122/98/88
f 122/98/88 20/47/47 123/100/90
f 20/47/47 19/49/49 123/100/90
f 123/100/90 19/49/49 52/23/23
f 19/49/49 2/4/4 52/23/23
f 55/101/91 60/102/92 8/31/31
f 56/103/93 124/104/94 55/101/91
f 57/16/16 125/105/95 56/103/93
f 55/101/91 124/104/94 60/102/92
f 124/104/94 59/106/96 60/102/92
f 56/103/93 125/105/95 124/104/94
f 125/105/95 126/107/97 124/104/94
f 124/104/94 126/107/97 59/106/96
f 126/107/97 58/24/24 59/106/96
f 57/16/16 33/15/15 125/105/95
f 33/15/15 32/65/62 125/105/95
f 125/105/95 32/65/62 126/107/97
f 32/65/62 31/67/64 126/107/97
f 126/107/97 31/67/64 58/24/24
f 31/67/64 3/11/11 58/24/24
f 61/108/98 66/109/99 9/34/34
f 62/110/100 127/111/101 61/108/98
f 63/19/19 128/112/102 62/110/100
f 61/108/98 127/111/101 66/109/99
f 127/111/101 65/113/103 66/109/99
f 62/110/100 128/112/102 127/111/101
f 128/112/102 129/114/104 127/111/101
f 127/111/101 129/114/104 65/113/103
f 129/114/104 64/115/25 65/113/103
f 63/19/19 39/18/18 128/112/102
f 39/18/18 38/73/69 128/112/102
f 128/112/102 38/73/69 129/114/104
f 38/73/69 37/75/71 129/114/104
f 129/114/104 37/75/71 64/115/25
f 37/79/71 4/14/14 64/25/25
f 67/116/105 72/117/106 10/37/37
f 68/118/107 130/119/108 67/116/105
f 69/22/22 131/120/109 68/118/107
f 67/116/105 130/119/108 72/117/106
f 130/119/108 71/121/110 72/117/106
f 68/118/107 131/120/109 130/119/108
f 131/120/109 132/122/111 130/119/108
f 130/119/108 132/122/111 71/121/110
f 132/122/111 70/26/26 71/121/110
f 69/22/22 42/21/21 131/120/109
f 42/21/21 41/83/74 131/120/109
f 131/120/109 41/83/74 132/122/111
f 41/83/74 40/85/76 132/122/111
f 132/122/111 40/85/76 70/26/26
f 40/85/76 5/17/17 70/26/26
f 54/95/85 75/29/29 7/28/28
f 53/99/89 133/123/112 54/95/85
f 52/23/23 134/124/113 53/99/89
f 54/95/85 133/123/112 75/29/29
f 133/123/112 74/125/114 75/29/29
f 53/99/89 134/124/113 133/123/112
f 134/124/113 135/126/115 133/123/112
f 133/123/112 135/126/115 74/125/114
f 135/126/115 73/127/116 74/125/114
f 52/23/23 45/10/10 134/124/113
f 45/10/10 44/88/79 134/124/113
f 134/124/113 44/88/79 135/126/115
f 44/88/79 43/86/77 135/126/115
f 135/126/115 43/86/77 73/127/116
f 43/86/77 11/40/40 73/127/116
f 60/102/92 78/32/32 8/31/31
f 59/106/96 136/128/117 60/102/92
f 58/24/24 137/129/118 59/106/96
f 60/102/92 136/128/117 78/32/32
f 136/128/117 77/130/119 78/32/32
f 59/106/96 137/129/118 136/128/117
f 137/129/118 138/131/120 136/128/117
f 136/128/117 138/131/120 77/130/119
f 138/131/120 76/132/121 77/130/119
f 58/24/24 51/13/13 137/129/118
f 51/13/13 50/96/86 137/129/118
f 137/129/118 50/96/86 138/131/120
f 50/96/86 49/94/84 138/131/120
f 138/131/120 49/94/84 76/132/121
f 49/94/84 7/28/28 76/132/121
f 66/109/99 81/35/35 9/34/34
f 65/113/103 139/133/122 66/109/99
f 64/115/25 140/134/123 65/113/103
f 66/109/99 139/133/122 81/35/35
f 139/133/122 80/135/124 81/35/35
f 65/113/103 140/134/123 139/133/122
f 140/136/123 141/137/125 139/133/122
f 139/133/122 141/137/125 80/135/124
f 141/137/125 79/138/126 80/135/124
f 64/25/25 57/16/16 140/136/123
f 57/16/16 56/103/93 140/136/123
f 140/136/123 56/103/93 141/137/125
f 56/103/93 55/101/91 141/137/125
f 141/137/125 55/101/91 79/138/126
f 55/101/91 8/31/31 79/138/126
f 72/117/106 84/38/38 10/37/37
f 71/121/110 142/139/127 72/117/106
f 70/26/26 143/140/128 71/121/110
f 72/117/106 142/139/127 84/38/38
f 142/139/127 83/141/129 84/38/38
f 71/121/110 143/140/128 142/139/127
f 143/140/128 144/142/130 142/139/127
f 142/139/127 144/142/130 83/141/129
f 144/142/130 82/143/131 83/141/129
f 70/26/26 63/19/19 143/140/128
f 63/19/19 62/110/100 143/140/128
f 143/140/128 62/110/100 144/142/130
f 62/110/100 61/108/98 144/142/130
f 144/142/130 61/108/98 82/143/131
f 61/108/98 9/34/34 82/143/131
f 48/87/78 87/41/41 11/40/40
f 47/91/82 145/144/132 48/87/78
f 46/27/27 146/145/133 47/91/82
f 48/87/78 145/144/132 87/41/41
f 145/144/132 86/146/134 87/41/41
f 47/91/82 146/145/133 145/144/132
f 146/145/133 147/147/135 145/144/132
f 145/144/132 147/147/135 86/146/134
f 147/147/135 85/148/136 86/146/134
f 46/27/27 69/22/22 146/145/133
f 69/22/22 68/118/107 146/145/133
f 146/145/133 68/118/107 147/147/135
f 68/118/107 67/116/105 147/147/135
f 147/147/135 67/116/105 85/148/136
f 67/116/105 10/37/37 85/148/136
f 88/149/137 93/150/138 12/151/139
f 89/152/140 148/153/141 88/149/137
f 90/30/30 149/154/142 89/152/140
f 88/149/137 148/153/141 93/150/138
f 148/153/141 92/155/143 93/150/138
f 89/152/140 149/154/142 148/153/141
f 149/154/142 150/156/144 148/153/141
f 148/153/141 150/156/144 92/155/143
f 150/156/144 91/42/42 92/155/143
f 90/30/30 75/29/29 149/154/142
f 75/29/29 74/125/114 149/154/142
f 149/154/142 74/125/114 150/156/144
f 74/125/114 73/127/116 150/156/144
f 150/156/144 73/127/116 91/42/42
f 73/127/116 11/40/40 91/42/42
f 94/157/145 88/149/137 12/151/139
f 95/158/146 151/159/147 94/157/145
f 96/33/33 152/160/148 95/158/146
f 94/157/145 151/159/147 88/149/137
f 151/159/147 89/152/140 88/149/137
f 95/158/146 152/160/148 151/159/147
f 152/160/148 153/161/149 151/159/147
f 151/159/147 153/161/149 89/152/140
f 153/161/149 90/30/30 89/152/140
f 96/33/33 78/32/32 152/160/148
f 78/32/32 77/130/119 152/160/148
f 152/160/148 77/130/119 153/161/149
f 77/130/119 76/132/121 153/161/149
f 153/161/149 76/132/121 90/30/30
f 76/132/121 7/28/28 90/30/30
f 97/162/150 94/157/145 12/151/139
f 98/163/151 154/164/152 97/162/150
f 99/36/36 155/165/153 98/163/151
f 97/162/150 154/164/152 94/157/145
f 154/164/152 95/158/146 94/157/145
f 98/163/151 155/165/153 154/164/152
f 155/165/153 156/166/154 154/164/152
f 154/164/152 156/166/154 95/158/146
f 156/166/154 96/33/33 95/158/146
f 99/36/36 81/35/35 155/165/153
f 81/35/35 80/135/124 155/165/153
f 155/165/153 80/135/124 156/166/154
f 80/135/124 79/138/126 156/166/154
f 156/166/154 79/138/126 96/33/33
f 79/138/126 8/31/31 96/33/33
f 100/167/155 97/162/150 12/151/139
f 101/168/156 157/169/157 100/167/155
f 102/39/39 158/170/158 101/168/156
f 100/167/155 157/169/157 97/162/150
f 157/169/157 98/163/151 97/162/150
f 101/168/156 158/170/158 157/169/157
f 158/170/158 159/171/159 157/169/157
f 157/169/157 159/171/159 98/163/151
f 159/171/159 99/36/36 98/163/151
f 102/39/39 84/38/38 158/170/158
f 84/38/38 83/141/129 158/170/158
f 158/170/158 83/141/129 159/171/159
f 83/141/129 82/143/131 159/171/159
f 159/171/159 82/143/131 99/36/36
f 82/143/131 9/34/34 99/36/36
f 93/150/138 100/167/155 12/151/139
f 92/155/143 160/172/160 93/150/138
f 91/42/42 161/173/161 92/155/143
f 93/150/138 160/172/160 100/167/155
f 160/172/160 101/168/156 100/167/155
f 92/155/143 161/173/161 160/172/160
f 161/173/161 162/174/162 160/172/160
f 160/172/160 162/174/162 101/168/156
f 162/174/162 102/39/39 101/168/156
f 91/42/42 87/41/41 161/173/161
f 87/41/41 86/146/134 161/173/161
f 161/173/161 86/146/134 162/174/162
f 86/146/134 85/148/136 162/174/162
f 162/174/162 85/148/136 102/39/39
f 85/148/136 10/37/37 102/39/39
